<mxfile host="app.diagrams.net" modified="2023-07-17T12:29:18.304Z" agent="Mozilla/5.0 (X11; Linux x86_64) AppleWebKit/537.36 (KHTML, like Gecko) Chrome/112.0.0.0 Safari/537.36" etag="6SVcoVLyi-ztA4Nptbvk" version="21.6.2" type="github">
  <diagram name="Page-1" id="aaaa8250-4180-3840-79b5-4cada1eebb92">
    <mxGraphModel dx="4435" dy="1908" grid="1" gridSize="10" guides="1" tooltips="1" connect="1" arrows="1" fold="1" page="1" pageScale="1" pageWidth="850" pageHeight="1100" background="none" math="0" shadow="0">
      <root>
        <mxCell id="0" />
        <mxCell id="1" parent="0" />
        <mxCell id="1a8abee3a6cfdf20-29" value="" style="verticalLabelPosition=bottom;html=1;verticalAlign=top;strokeWidth=1;dashed=0;shape=mxgraph.aws3d.dashedEdgeDouble;fillColor=#000000;aspect=fixed;rounded=1;shadow=0;comic=0;fontFamily=Verdana;fontSize=12;flipV=1;" parent="1" vertex="1">
          <mxGeometry x="520" y="1040" width="358.11" height="205.81" as="geometry" />
        </mxCell>
        <mxCell id="1a8abee3a6cfdf20-30" value="" style="verticalLabelPosition=bottom;html=1;verticalAlign=top;strokeWidth=1;dashed=0;shape=mxgraph.aws3d.dashedEdgeDouble;fillColor=#000000;aspect=fixed;rounded=1;shadow=0;comic=0;fontFamily=Verdana;fontSize=12;flipV=1;" parent="1" vertex="1">
          <mxGeometry x="1360" y="680" width="280" height="160.92" as="geometry" />
        </mxCell>
        <mxCell id="d5ac148becb70bc-8" value="" style="verticalLabelPosition=bottom;html=1;verticalAlign=top;strokeWidth=1;dashed=0;shape=mxgraph.aws3d.dashedArrowlessEdge;aspect=fixed;rounded=1;shadow=0;comic=0;fontFamily=Verdana;fontSize=12" parent="1" vertex="1">
          <mxGeometry x="1339" y="274.24" width="1055.59" height="601.51" as="geometry" />
        </mxCell>
        <mxCell id="d5ac148becb70bc-9" value="" style="verticalLabelPosition=bottom;html=1;verticalAlign=top;strokeWidth=1;dashed=0;shape=mxgraph.aws3d.dashedArrowlessEdge;aspect=fixed;rounded=1;shadow=0;comic=0;fontFamily=Verdana;fontSize=12" parent="1" vertex="1">
          <mxGeometry x="-162" y="1126" width="1070.49" height="610" as="geometry" />
        </mxCell>
        <mxCell id="d5ac148becb70bc-10" value="" style="verticalLabelPosition=bottom;html=1;verticalAlign=top;strokeWidth=1;dashed=0;shape=mxgraph.aws3d.dashedArrowlessEdge;fillColor=#000000;aspect=fixed;rounded=1;shadow=0;comic=0;fontFamily=Verdana;fontSize=12;fontColor=#000000;flipV=1;" parent="1" vertex="1">
          <mxGeometry x="-160" y="280" width="1499.52" height="852.55" as="geometry" />
        </mxCell>
        <mxCell id="d5ac148becb70bc-12" value="" style="verticalLabelPosition=bottom;html=1;verticalAlign=top;strokeWidth=1;dashed=0;shape=mxgraph.aws3d.dashedArrowlessEdge;aspect=fixed;rounded=1;shadow=0;comic=0;fontFamily=Verdana;fontSize=12;flipV=1;" parent="1" vertex="1">
          <mxGeometry x="900" y="880" width="1500.52" height="855.72" as="geometry" />
        </mxCell>
        <mxCell id="KAnkXt2HRYqCkRdDYMk1-1" value="&lt;font style=&quot;font-size: 48px;&quot;&gt;mysql db:&lt;/font&gt;&lt;font style=&quot;font-size: 48px;&quot;&gt;&lt;font style=&quot;&quot;&gt;&amp;nbsp;&lt;/font&gt;hfdvcbmysql01.vm.itg.corp.us.shldcorp.com:3372&lt;/font&gt;" style="rounded=0;whiteSpace=wrap;html=1;" vertex="1" parent="1">
          <mxGeometry x="1140" y="360" width="1330" height="140" as="geometry" />
        </mxCell>
        <mxCell id="KAnkXt2HRYqCkRdDYMk1-2" value="" style="verticalLabelPosition=bottom;html=1;verticalAlign=top;strokeWidth=1;align=center;outlineConnect=0;dashed=0;outlineConnect=0;shape=mxgraph.aws3d.oracleServer;fillColor=#ECECEC;strokeColor=#5E5E5E;aspect=fixed;" vertex="1" parent="1">
          <mxGeometry x="1590" y="440" width="221.75" height="256" as="geometry" />
        </mxCell>
        <mxCell id="KAnkXt2HRYqCkRdDYMk1-5" value="" style="verticalLabelPosition=bottom;html=1;verticalAlign=top;strokeWidth=1;align=center;outlineConnect=0;dashed=0;outlineConnect=0;shape=mxgraph.aws3d.client;aspect=fixed;strokeColor=none;fillColor=#777777;" vertex="1" parent="1">
          <mxGeometry x="240" y="900" width="259.62" height="450" as="geometry" />
        </mxCell>
        <mxCell id="KAnkXt2HRYqCkRdDYMk1-6" value="&lt;font style=&quot;font-size: 48px;&quot;&gt;Client PC&lt;/font&gt;" style="rounded=0;whiteSpace=wrap;html=1;" vertex="1" parent="1">
          <mxGeometry x="-160" y="1350.0000000000002" width="557" height="50" as="geometry" />
        </mxCell>
        <mxCell id="KAnkXt2HRYqCkRdDYMk1-7" value="&lt;font style=&quot;font-size: 48px;&quot;&gt;VPN&lt;/font&gt;" style="rounded=0;whiteSpace=wrap;html=1;" vertex="1" parent="1">
          <mxGeometry x="600" y="1750" width="557" height="50" as="geometry" />
        </mxCell>
        <mxCell id="KAnkXt2HRYqCkRdDYMk1-8" value="" style="verticalLabelPosition=bottom;html=1;verticalAlign=top;strokeWidth=1;align=center;outlineConnect=0;dashed=0;outlineConnect=0;shape=mxgraph.aws3d.application_server;fillColor=#ECECEC;strokeColor=#5E5E5E;aspect=fixed;" vertex="1" parent="1">
          <mxGeometry x="900" y="743.1" width="470" height="473.82" as="geometry" />
        </mxCell>
        <mxCell id="KAnkXt2HRYqCkRdDYMk1-9" value="&lt;font style=&quot;font-size: 48px;&quot;&gt;&lt;font style=&quot;&quot;&gt;AppServer:&lt;/font&gt;&lt;font style=&quot;&quot;&gt;&lt;font style=&quot;&quot;&gt;&amp;nbsp;&lt;/font&gt;&lt;/font&gt;&lt;a style=&quot;overflow-wrap: break-word;&quot; class=&quot;fui-Link ___1eya986 f3rmtva f1ewtqcl fyind8e f1k6fduh f1w7gpdv fk6fouc fjoy568 figsok6 f1hu3pq6 f11qmguv f19f4twv f1tyq0we f1g0x7ka fhxju0i f1qch9an f1cnd47f fqv5qza f1vmzxwi f1o700av f13mvf36 f1cmlufx f9n3di6 f1ids18y f1tx3yz7 f1deo86v f1eh06m1 f1iescvh fhgqx19 f1olyrje f1p93eir f1nev41a f1h8hb77 f1x7u7e9 f10aw75t fsle3fq f17ae5zn&quot; target=&quot;_blank&quot; rel=&quot;noreferrer noopener&quot; href=&quot;https://nam02.safelinks.protection.outlook.com/?url=http%3A%2F%2Fhfdvcbapp01.vm.itg.corp.us.shldcorp.com%3A9080%2Fhr_connect%2Fadd%2FgetTaskType%3FuserName%3Dskhaby0&amp;amp;data=05%7C01%7CGaurav.Singh3%40transformco.com%7C25bcb8b66f424d9bf64408db785bd442%7C27e4c16803234463acad7e124b566726%7C0%7C0%7C638236108043126757%7CUnknown%7CTWFpbGZsb3d8eyJWIjoiMC4wLjAwMDAiLCJQIjoiV2luMzIiLCJBTiI6Ik1haWwiLCJXVCI6Mn0%3D%7C3000%7C%7C%7C&amp;amp;sdata=%2BYSevE2Qfdd5x8%2FVA4UsQiqsEuPbs4Io3hKgRWX2j2w%3D&amp;amp;reserved=0&quot; title=&quot;https://nam02.safelinks.protection.outlook.com/?url=http%3a%2f%2fhfdvcbapp01.vm.itg.corp.us.shldcorp.com%3a9080%2fhr_connect%2fadd%2fgettasktype%3fusername%3dskhaby0&amp;amp;data=05%7c01%7cgaurav.singh3%40transformco.com%7c25bcb8b66f424d9bf64408db785bd442%7c27e4c16803234463acad7e124b566726%7c0%7c0%7c638236108043126757%7cunknown%7ctwfpbgzsb3d8eyjwijoimc4wljawmdailcjqijoiv2lumziilcjbtii6ik1hawwilcjxvci6mn0%3d%7c3000%7c%7c%7c&amp;amp;sdata=%2byseve2qfdd5x8%2fva4usqiqseupbs4io3hkgrwx2j2w%3d&amp;amp;reserved=0&quot; aria-label=&quot;Link http://hfdvcbapp01.vm.itg.corp.us.shldcorp.com:9080/hr_connect/&quot;&gt;hfdvcbapp01.vm.itg.corp.us.shldcorp.com:9080/hr_connect/&lt;/a&gt;&lt;/font&gt;" style="rounded=0;whiteSpace=wrap;html=1;" vertex="1" parent="1">
          <mxGeometry x="530" y="1360" width="1550" height="160" as="geometry" />
        </mxCell>
        <mxCell id="KAnkXt2HRYqCkRdDYMk1-10" value="&lt;span style=&quot;font-size: 48px;&quot;&gt;https&lt;/span&gt;" style="text;html=1;align=center;verticalAlign=middle;resizable=0;points=[];autosize=1;strokeColor=none;fillColor=none;rotation=-30;" vertex="1" parent="1">
          <mxGeometry x="580" y="1030" width="130" height="70" as="geometry" />
        </mxCell>
        <mxCell id="KAnkXt2HRYqCkRdDYMk1-14" value="&lt;font style=&quot;font-size: 48px;&quot;&gt;JDBC connection &lt;br&gt;via TCP/IP&lt;/font&gt;" style="text;html=1;align=center;verticalAlign=middle;resizable=0;points=[];autosize=1;strokeColor=none;fillColor=none;rotation=-30;" vertex="1" parent="1">
          <mxGeometry x="1420" y="860" width="390" height="130" as="geometry" />
        </mxCell>
      </root>
    </mxGraphModel>
  </diagram>
</mxfile>
